<svg width="27" height="27" viewBox="0 0 27 27" fill="none" xmlns="http://www.w3.org/2000/svg">
<circle cx="13.5" cy="13.5" r="13.5" fill="#8C94FB"/>
<path d="M18.7083 9.90251L14.9498 6.14399C14.8424 6.0366 14.735 5.98291 14.5739 5.98291H9.2046C8.61398 5.98291 8.13074 6.46615 8.13074 7.05677V19.9431C8.13074 20.5338 8.61398 21.017 9.2046 21.017H17.7955C18.3861 21.017 18.8694 20.5338 18.8694 19.9431V10.2784C18.8694 10.1173 18.8157 10.0099 18.7083 9.90251ZM14.5739 7.27155L17.5807 10.2784H14.5739V7.27155ZM17.7955 19.9431H9.2046V7.05677H13.5001V10.2784C13.5001 10.869 13.9833 11.3522 14.5739 11.3522H17.7955V19.9431Z" fill="white"/>
<path d="M10.2784 16.7216H16.7216V17.7955H10.2784V16.7216ZM10.2784 13.5H16.7216V14.5739H10.2784V13.5Z" fill="white"/>
</svg>
