<svg width="29" height="34" viewBox="0 0 29 34" fill="none" xmlns="http://www.w3.org/2000/svg">
<g clip-path="url(#clip0_192_71)">
<path d="M4.14286 14.928H5.01674C6.61562 18.5853 10.2536 21.1423 14.5 21.1423C18.7464 21.1423 22.3844 18.5853 23.9833 14.928H24.8571C25.4268 14.928 25.8929 14.4619 25.8929 13.8923V7.67798C25.8929 7.10834 25.4268 6.64226 24.8571 6.64226H23.9833C22.3844 2.9849 18.7464 0.427979 14.5 0.427979C10.2536 0.427979 6.61562 2.9849 5.01674 6.64226H4.14286C3.57321 6.64226 3.10714 7.10834 3.10714 7.67798V13.8923C3.10714 14.4619 3.57321 14.928 4.14286 14.928ZM6.73214 9.23155C6.73214 7.80097 8.12388 6.64226 9.83929 6.64226H19.1607C20.8761 6.64226 22.2679 7.80097 22.2679 9.23155V10.7851C22.2679 14.2159 19.4844 16.9994 16.0536 16.9994H12.9464C9.51562 16.9994 6.73214 14.2159 6.73214 10.7851V9.23155ZM11.3929 13.8923L12.1696 11.5619L14.5 10.7851L12.1696 10.0083L11.3929 7.67798L10.6161 10.0083L8.28571 10.7851L10.6161 11.5619L11.3929 13.8923ZM21.2062 21.2329C19.2708 22.4822 16.9728 23.2137 14.5 23.2137C12.0272 23.2137 9.72924 22.4822 7.79375 21.2329C3.42433 21.6925 0 25.3499 0 29.8423V30.4637C0 32.1791 1.39174 33.5708 3.10714 33.5708H8.28571V29.428C8.28571 28.2822 9.21138 27.3566 10.3571 27.3566H18.6429C19.7886 27.3566 20.7143 28.2822 20.7143 29.428V33.5708H25.8929C27.6083 33.5708 29 32.1791 29 30.4637V29.8423C29 25.3499 25.5757 21.6925 21.2062 21.2329ZM17.6071 29.428C17.0375 29.428 16.5714 29.894 16.5714 30.4637C16.5714 31.0333 17.0375 31.4994 17.6071 31.4994C18.1768 31.4994 18.6429 31.0333 18.6429 30.4637C18.6429 29.894 18.1768 29.428 17.6071 29.428ZM11.3929 29.428C10.8232 29.428 10.3571 29.894 10.3571 30.4637V33.5708H12.4286V30.4637C12.4286 29.894 11.9625 29.428 11.3929 29.428Z" fill="white"/>
</g>
<defs>
<clipPath id="clip0_192_71">
<rect width="29" height="33.1429" fill="white" transform="translate(0 0.427979)"/>
</clipPath>
</defs>
</svg>
